<svg width="25" height="20" viewBox="0 0 25 20" fill="none" xmlns="http://www.w3.org/2000/svg">
<g clip-path="url(#clip0_53_3)">
<path d="M23.0263 0H1.97368C0.883647 0 0 0.883647 0 1.97368V1.97369C0 3.06372 0.883647 3.94737 1.97368 3.94737H23.0263C24.1164 3.94737 25 3.06372 25 1.97368C25 0.883647 24.1164 0 23.0263 0Z" fill="#020202"/>
<path d="M23 8H7C5.89543 8 5 8.89543 5 10C5 11.1046 5.89543 12 7 12H23C24.1046 12 25 11.1046 25 10C25 8.89543 24.1046 8 23 8Z" fill="#020202"/>
<path d="M23.0263 15.7896H1.97368C0.883647 15.7896 0 16.6732 0 17.7632V17.7632C0 18.8533 0.883647 19.7369 1.97368 19.7369H23.0263C24.1164 19.7369 25 18.8533 25 17.7632C25 16.6732 24.1164 15.7896 23.0263 15.7896Z" fill="#020202"/>
</g>
<defs>
<clipPath id="clip0_53_3">
<rect width="25" height="20" fill="white"/>
</clipPath>
</defs>
</svg>
